<?xml version="1.0" encoding="UTF-8"?>
<svg id="Layer_2" xmlns="http://www.w3.org/2000/svg" xmlns:xlink="http://www.w3.org/1999/xlink" viewBox="0 0 1920 1080">
  <defs>
    <style>
      .cls-1 {
        fill: url(#linear-gradient-8);
      }

      .cls-2 {
        fill: url(#linear-gradient-7);
      }

      .cls-3 {
        fill: url(#linear-gradient-5);
      }

      .cls-4 {
        fill: url(#linear-gradient-6);
      }

      .cls-5 {
        fill: url(#linear-gradient-9);
      }

      .cls-6 {
        fill: url(#linear-gradient-4);
      }

      .cls-7 {
        fill: url(#linear-gradient-3);
      }

      .cls-8 {
        fill: url(#linear-gradient-2);
      }

      .cls-9 {
        fill: url(#linear-gradient);
      }

      .cls-10 {
        fill: url(#linear-gradient-10);
      }

      .cls-11 {
        fill: url(#linear-gradient-11);
      }

      .cls-12 {
        fill: url(#linear-gradient-12);
      }

      .cls-13 {
        fill: url(#linear-gradient-13);
      }

      .cls-14 {
        fill: url(#linear-gradient-19);
      }

      .cls-15 {
        fill: url(#linear-gradient-14);
      }

      .cls-16 {
        fill: url(#linear-gradient-20);
      }

      .cls-17 {
        fill: url(#linear-gradient-15);
      }

      .cls-18 {
        fill: url(#linear-gradient-16);
      }

      .cls-19 {
        fill: url(#linear-gradient-17);
      }

      .cls-20 {
        fill: url(#linear-gradient-18);
      }
    </style>
    <linearGradient id="linear-gradient" x1="907.77" y1="551.89" x2="997.58" y2="551.89" gradientUnits="userSpaceOnUse">
      <stop offset="0" stop-color="#fee9db"/>
      <stop offset=".08" stop-color="#fcdaca"/>
      <stop offset=".25" stop-color="#f9b5a0"/>
      <stop offset=".48" stop-color="#f37a5c"/>
      <stop offset=".51" stop-color="#f37050"/>
      <stop offset=".79" stop-color="#ec4847"/>
      <stop offset=".84" stop-color="#d73c3e"/>
      <stop offset=".93" stop-color="#a11e27"/>
      <stop offset="1" stop-color="#760615"/>
    </linearGradient>
    <linearGradient id="linear-gradient-2" x1="1192.38" y1="753.83" x2="1099.87" y2="772.07" gradientTransform="translate(136.79 -554.88) rotate(18.62)" gradientUnits="userSpaceOnUse">
      <stop offset="0" stop-color="#fa8f5e"/>
      <stop offset=".19" stop-color="#fdc86e"/>
      <stop offset=".66" stop-color="#f53042"/>
      <stop offset=".71" stop-color="#e82b3d"/>
      <stop offset=".81" stop-color="#c82132"/>
      <stop offset=".94" stop-color="#940f20"/>
      <stop offset="1" stop-color="#780616"/>
    </linearGradient>
    <linearGradient id="linear-gradient-3" x1="1187.52" y1="729.16" x2="1095" y2="747.4" gradientTransform="translate(136.79 -554.88) rotate(18.62)" gradientUnits="userSpaceOnUse">
      <stop offset="0" stop-color="#6d5fbd"/>
      <stop offset=".18" stop-color="#9a99ff"/>
      <stop offset=".6" stop-color="#5655c8"/>
      <stop offset="1" stop-color="#113165"/>
    </linearGradient>
    <linearGradient id="linear-gradient-4" x1="1192.57" y1="748.06" x2="1082.85" y2="769.68" xlink:href="#linear-gradient-3"/>
    <linearGradient id="linear-gradient-5" x1="960.63" y1="465.8" x2="941.96" y2="554.73" gradientUnits="userSpaceOnUse">
      <stop offset="0" stop-color="#2f96d9"/>
      <stop offset=".26" stop-color="#40cbed"/>
      <stop offset=".61" stop-color="#2a85d2"/>
      <stop offset="1" stop-color="#133a72"/>
    </linearGradient>
    <linearGradient id="linear-gradient-6" x1="907.77" y1="544.03" x2="997.58" y2="544.03" gradientTransform="matrix(1,0,0,1,0,0)" xlink:href="#linear-gradient-2"/>
    <linearGradient id="linear-gradient-7" x1="1086.08" y1="723.79" x2="1174.59" y2="756.26" xlink:href="#linear-gradient-3"/>
    <linearGradient id="linear-gradient-8" x1="949.72" y1="463.51" x2="931.05" y2="552.44" gradientUnits="userSpaceOnUse">
      <stop offset="0" stop-color="#c6eefa"/>
      <stop offset=".59" stop-color="#4194e8"/>
      <stop offset="1" stop-color="#254267"/>
    </linearGradient>
    <linearGradient id="linear-gradient-9" x1="1015.04" y1="591.35" x2="1023.73" y2="516.71" gradientUnits="userSpaceOnUse">
      <stop offset="0" stop-color="#f8c9db"/>
      <stop offset=".07" stop-color="#f6b8d2"/>
      <stop offset=".21" stop-color="#f28cbc"/>
      <stop offset=".41" stop-color="#ec4698"/>
      <stop offset=".45" stop-color="#eb3891"/>
      <stop offset=".53" stop-color="#de358b"/>
      <stop offset=".68" stop-color="#be2d7d"/>
      <stop offset=".87" stop-color="#8a2166"/>
      <stop offset="1" stop-color="#661956"/>
    </linearGradient>
    <linearGradient id="linear-gradient-10" x1="903.32" y1="521.04" x2="971.15" y2="562.96" gradientUnits="userSpaceOnUse">
      <stop offset="0" stop-color="#6d6e71"/>
      <stop offset=".51" stop-color="#fff"/>
      <stop offset="1" stop-color="#6d6e71"/>
    </linearGradient>
    <linearGradient id="linear-gradient-11" x1="995.24" y1="519.94" x2="1002.23" y2="574.73" xlink:href="#linear-gradient-10"/>
    <linearGradient id="linear-gradient-12" x1="995.43" y1="519.79" x2="1002.44" y2="574.7" xlink:href="#linear-gradient-10"/>
    <linearGradient id="linear-gradient-13" x1="995.01" y1="519.95" x2="1002" y2="574.75" xlink:href="#linear-gradient-10"/>
    <linearGradient id="linear-gradient-14" x1="993.66" y1="520.15" x2="1000.65" y2="574.94" xlink:href="#linear-gradient-10"/>
    <linearGradient id="linear-gradient-15" x1="995.69" y1="519.88" x2="1002.68" y2="574.67" xlink:href="#linear-gradient-10"/>
    <linearGradient id="linear-gradient-16" x1="1196.87" y1="739.07" x2="1103.46" y2="703.04" gradientTransform="translate(136.79 -554.88) rotate(18.62)" gradientUnits="userSpaceOnUse">
      <stop offset="0" stop-color="#ddc6ea"/>
      <stop offset=".64" stop-color="#8e61c5"/>
      <stop offset="1" stop-color="#13336a"/>
    </linearGradient>
    <linearGradient id="linear-gradient-17" x1="1194.13" y1="748.58" x2="1090.51" y2="708.61" xlink:href="#linear-gradient-16"/>
    <linearGradient id="linear-gradient-18" x1="975.08" y1="464.9" x2="932.92" y2="523.83" xlink:href="#linear-gradient-10"/>
    <linearGradient id="linear-gradient-19" x1="991.54" y1="588.62" x2="1000.23" y2="513.97" gradientUnits="userSpaceOnUse">
      <stop offset="0" stop-color="#be237a"/>
      <stop offset=".25" stop-color="#fc4de8"/>
      <stop offset=".52" stop-color="#fa38ad"/>
      <stop offset=".65" stop-color="#fa2d8f"/>
      <stop offset="1" stop-color="#70175e"/>
    </linearGradient>
    <linearGradient id="linear-gradient-20" x1="963.83" y1="493.61" x2="1030.81" y2="535.17" xlink:href="#linear-gradient-10"/>
  </defs>
  <path class="cls-9" d="M1020.66,528h-1.84c0,36.89-39.91,44.33-39.91,44.33-2.63.46-5.3.75-8.01.86-16.27.68-31.83-5.02-43.81-16.05-8.66-7.97-14.7-18.03-17.64-29.14-1.13-4.26-1.8-8.67-1.99-13.18-.94,4.29-1.42,8.7-1.42,13.18,0,.84.01,1.69.05,2.53.68,16.27,7.65,31.3,19.63,42.33,8.04,7.4,17.7,12.4,28.1,14.68,5.09,1.12,10.37,1.59,15.71,1.37,16.27-.68,31.3-7.65,42.33-19.63,7.4-8.04,13.81-17.7,16.1-28.1-1.43-4.62-4.82-9.04-7.3-13.18Z"/>
  <g>
    <path class="cls-8" d="M937.35,529.23c-.02-.41-.02-.82-.02-1.23h-.01c0,.41.02.82.04,1.23Z"/>
    <path class="cls-7" d="M945.16,507.91c5.37-5.83,12.68-9.23,20.6-9.56,16.27-.68,31.83,5.02,43.81,16.05,4.39,4.04,8.1,8.62,11.08,13.6h3.9c-2.94-11.11-8.98-21.18-17.64-29.15-11.98-11.03-27.54-16.73-43.81-16.05-2.71.11-5.38.4-8.01.86-.57.57-1.14,1.16-1.69,1.76-10.75,11.68-16.43,26.76-16.09,42.58h.01c0-7.47,2.75-14.56,7.83-20.09Z"/>
    <path class="cls-6" d="M1027.96,541.18s-2.28-8.92-3.4-13.18h-3.9c2.48,4.14,7.3,13.18,7.3,13.18Z"/>
  </g>
  <path class="cls-3" d="M946.91,549.84c-5.83-5.37-9.23-12.68-9.56-20.6-.02-.41-.03-.82-.04-1.23-.35-15.82,5.34-30.9,16.09-42.58,7.4-8.04,16.61-13.82,26.78-16.96,0,0,0,0-.01,0-16.26.68-31.29,7.65-42.31,19.63-10.14,11.02-15.77,25.07-16.09,39.91-.03,1.29-.02,2.59.04,3.9.11,2.71.4,5.39.86,8.01.57.57,1.16,1.13,1.75,1.69,11.98,11.03,27.54,16.73,43.81,16.05-7.92.33-15.49-2.45-21.32-7.81Z"/>
  <g>
    <path class="cls-4" d="M1012.23,528h-15.56c0,7.47-2.75,14.56-7.83,20.09-5.37,5.83-12.68,9.23-20.6,9.56-16.27.68-31.83-5.02-43.81-16.05-4.39-4.04-8.1-8.62-11.08-13.6-2.48-4.14-4.46-8.56-5.88-13.18.19,4.51.86,8.92,1.99,13.18,2.94,11.11,8.98,21.17,17.64,29.14,11.98,11.03,27.54,16.73,43.81,16.05,2.71-.11,5.38-.4,8.01-.86,0,0,39.9-7.44,39.91-44.33h-6.59Z"/>
    <path class="cls-2" d="M996.65,526.77c.02.41.02.82.02,1.23h.02c0-.41-.02-.82-.04-1.23Z"/>
  </g>
  <path class="cls-1" d="M964.47,467.09c-16.27.68-31.3,7.65-42.33,19.63-7.4,8.04-12.4,17.7-14.68,28.1,1.43,4.62,3.4,9.04,5.88,13.18,2.58,4.3,5.7,8.3,9.33,11.91-.46-2.63-.75-5.3-.86-8.01-.05-1.3-.06-2.6-.04-3.9.31-14.84,5.94-28.89,16.09-39.91,11.02-11.98,26.05-18.95,42.31-19.63-5.09-1.12-10.36-1.59-15.7-1.37Z"/>
  <path class="cls-5" d="M1020.66,528c-2.57-4.3-5.69-8.3-9.32-11.91.46,2.63.75,5.3.86,8.01.05,1.31.06,2.61.04,3.9v29.76c0,18.17,15.72,29.76,15.72,29.76v-46.33l-7.3-13.18Z"/>
  <path class="cls-10" d="M939.98,551.48c-12.74-5.75-21.04-15.49-26.06-23.48-4.28-6.81-6.19-12.36-6.43-13.1,1.42,4.59,3.39,8.98,5.86,13.1,2.98,4.98,6.69,9.56,11.08,13.6,11.98,11.03,27.54,16.73,43.81,16.05,2.35-.1,4.65-.47,6.86-1.09-8.51,1.54-20.64,1.46-35.11-5.07Z"/>
  <g>
    <path class="cls-11" d="M1001.88,573.68c.19.26.36.48.51.67-.17-.22-.34-.44-.51-.67Z"/>
    <path class="cls-12" d="M1002.39,574.35s0,0,0,.01c0,0,0,0,0-.01Z"/>
    <path class="cls-13" d="M1001.83,573.61s.03.05.05.07c-.02-.02-.03-.05-.05-.07Z"/>
    <path class="cls-15" d="M1001.83,573.61c-5.15-7.18-5.15-17.37-5.15-17.37v-28.24c0-.41-.02-.82-.04-1.23-.1-2.35-.47-4.65-1.09-6.86.44,2.41.63,5.12.69,8.09v28.3c0,8.48,3.67,14.67,5.58,17.31Z"/>
    <path class="cls-17" d="M1002.4,574.36c.35.44.57.68.57.68-.19-.22-.38-.45-.57-.68Z"/>
  </g>
  <g>
    <path class="cls-18" d="M1027.91,525.47c-.68-16.27-7.65-31.3-19.63-42.33-8.04-7.4-17.7-12.4-28.1-14.68-9.41,2.91-18,8.08-25.09,15.2,2.63-.46,5.3-.75,8.01-.86,16.27-.68,31.83,5.02,43.81,16.05,8.66,7.97,14.7,18.04,17.64,29.15h3.4c0-.84-.01-1.69-.05-2.53Z"/>
    <path class="cls-19" d="M1027.96,528h-3.4c1.13,4.26,3.4,13.18,3.4,13.18,0,0,0-8.7,0-13.18Z"/>
  </g>
  <path class="cls-20" d="M943.52,500.98c10.64-23.59,34.98-31.96,36.58-32.49-10.14,3.15-19.31,8.91-26.69,16.93-10.75,11.68-16.43,26.76-16.09,42.58,0,0,.6-6.98.75-8.16.71-5.67,2.36-12,5.45-18.86Z"/>
  <path class="cls-14" d="M1012.23,557.76v-29.76c.03-1.3.02-2.6-.04-3.9-.11-2.71-.4-5.38-.86-8.01-.58-.57-1.16-1.14-1.76-1.69-11.98-11.03-27.54-16.73-43.81-16.05,7.92-.33,15.49,2.45,21.33,7.81,5.83,5.37,9.23,12.68,9.56,20.6.02.41.03.82.04,1.23h0v28.24c0,17.27,14,31.27,31.27,31.27,0,0-15.72-11.59-15.72-29.76Z"/>
  <path class="cls-16" d="M1020.66,528c-2.98-4.98-6.69-9.56-11.08-13.6-11.98-11.03-27.54-16.73-43.81-16.05-2.35.1-4.65.47-6.86,1.09,8.51-1.54,20.64-1.46,35.11,5.07,12.74,5.75,21.04,15.49,26.06,23.48,4.28,6.81,7.63,12.36,7.87,13.1-1.42-4.59-4.83-8.98-7.3-13.1Z"/>
</svg>