<?xml version="1.0" encoding="UTF-8"?>
<svg id="_x33_" xmlns="http://www.w3.org/2000/svg" xmlns:xlink="http://www.w3.org/1999/xlink" viewBox="0 0 350 106">
  <defs>
    <style>
      .cls-1 {
        fill: none;
      }

      .cls-2 {
        fill: url(#linear-gradient-8);
      }

      .cls-3 {
        fill: url(#linear-gradient-7);
      }

      .cls-4 {
        fill: url(#linear-gradient-5);
      }

      .cls-5 {
        fill: url(#linear-gradient-6);
      }

      .cls-6 {
        fill: url(#linear-gradient-9);
      }

      .cls-7 {
        fill: url(#linear-gradient-4);
      }

      .cls-8 {
        fill: url(#linear-gradient-3);
      }

      .cls-9 {
        fill: url(#linear-gradient-2);
      }

      .cls-10 {
        fill: url(#linear-gradient);
      }

      .cls-11 {
        font-family: Poppins-Regular, Poppins;
        font-size: 22.98px;
      }

      .cls-11, .cls-12 {
        fill: #fff;
      }

      .cls-13 {
        fill: url(#linear-gradient-10);
      }

      .cls-14 {
        fill: url(#linear-gradient-11);
      }

      .cls-15 {
        fill: url(#linear-gradient-12);
      }

      .cls-16 {
        fill: url(#linear-gradient-13);
      }

      .cls-17 {
        fill: url(#linear-gradient-19);
      }

      .cls-18 {
        fill: url(#linear-gradient-14);
      }

      .cls-19 {
        fill: url(#linear-gradient-21);
      }

      .cls-20 {
        fill: url(#linear-gradient-20);
      }

      .cls-21 {
        fill: url(#linear-gradient-22);
      }

      .cls-22 {
        fill: url(#linear-gradient-23);
      }

      .cls-23 {
        fill: url(#linear-gradient-28);
      }

      .cls-24 {
        fill: url(#linear-gradient-25);
      }

      .cls-25 {
        fill: url(#linear-gradient-15);
      }

      .cls-26 {
        fill: url(#linear-gradient-16);
      }

      .cls-27 {
        fill: url(#linear-gradient-17);
      }

      .cls-28 {
        fill: url(#linear-gradient-18);
      }

      .cls-29 {
        fill: url(#linear-gradient-27);
      }

      .cls-30 {
        fill: url(#linear-gradient-24);
      }

      .cls-31 {
        fill: url(#linear-gradient-26);
      }

      .cls-32 {
        fill: url(#linear-gradient-29);
      }
    </style>
    <linearGradient id="linear-gradient" x1="154.86" y1="89.81" x2="228.23" y2="89.81" gradientUnits="userSpaceOnUse">
      <stop offset="0" stop-color="#ec008c"/>
      <stop offset="1" stop-color="#006fb8"/>
    </linearGradient>
    <linearGradient id="linear-gradient-2" x1="294.59" y1="89.81" x2="321.44" y2="89.81" gradientUnits="userSpaceOnUse">
      <stop offset="0" stop-color="#f37925"/>
      <stop offset="1" stop-color="#ec008c"/>
    </linearGradient>
    <linearGradient id="linear-gradient-3" x1="130.38" y1="67.89" x2="141.47" y2="49.1" gradientUnits="userSpaceOnUse">
      <stop offset="0" stop-color="#fee9db"/>
      <stop offset=".08" stop-color="#fcdaca"/>
      <stop offset=".25" stop-color="#f9b5a0"/>
      <stop offset=".48" stop-color="#f37a5c"/>
      <stop offset=".51" stop-color="#f37050"/>
      <stop offset=".79" stop-color="#ec4847"/>
      <stop offset=".84" stop-color="#d73c3e"/>
      <stop offset=".93" stop-color="#a11e27"/>
      <stop offset="1" stop-color="#760615"/>
    </linearGradient>
    <linearGradient id="linear-gradient-4" x1="135.67" y1="71.01" x2="146.77" y2="52.23" gradientUnits="userSpaceOnUse">
      <stop offset="0" stop-color="#fa8f5e"/>
      <stop offset=".19" stop-color="#fdc86e"/>
      <stop offset=".66" stop-color="#f53042"/>
      <stop offset=".71" stop-color="#e82b3d"/>
      <stop offset=".81" stop-color="#c82132"/>
      <stop offset=".94" stop-color="#940f20"/>
      <stop offset="1" stop-color="#780616"/>
    </linearGradient>
    <linearGradient id="linear-gradient-5" x1="144.7" y1="23.03" x2="144.7" y2="57.19" gradientUnits="userSpaceOnUse">
      <stop offset="0" stop-color="#6d5fbd"/>
      <stop offset=".18" stop-color="#9a99ff"/>
      <stop offset=".6" stop-color="#5655c8"/>
      <stop offset="1" stop-color="#113165"/>
    </linearGradient>
    <linearGradient id="linear-gradient-6" x1="141.85" y1="23.03" x2="141.85" y2="57.19" gradientUnits="userSpaceOnUse">
      <stop offset="0" stop-color="#ddc6ea"/>
      <stop offset=".64" stop-color="#8e61c5"/>
      <stop offset="1" stop-color="#13336a"/>
    </linearGradient>
    <linearGradient id="linear-gradient-7" x1="135.36" y1="43.15" x2="146.91" y2="57.99" gradientUnits="userSpaceOnUse">
      <stop offset="0" stop-color="#6d6e71"/>
      <stop offset=".51" stop-color="#fff"/>
      <stop offset="1" stop-color="#6d6e71"/>
    </linearGradient>
    <linearGradient id="linear-gradient-8" x1="144.76" y1="9.71" x2="144.76" y2="25.93" gradientUnits="userSpaceOnUse">
      <stop offset="0" stop-color="#2f96d9"/>
      <stop offset=".26" stop-color="#40cbed"/>
      <stop offset=".61" stop-color="#2a85d2"/>
      <stop offset="1" stop-color="#133a72"/>
    </linearGradient>
    <linearGradient id="linear-gradient-9" x1="139.73" y1="9.71" x2="139.73" y2="25.93" gradientUnits="userSpaceOnUse">
      <stop offset="0" stop-color="#c6eefa"/>
      <stop offset=".59" stop-color="#4194e8"/>
      <stop offset="1" stop-color="#254267"/>
    </linearGradient>
    <linearGradient id="linear-gradient-10" x1="48.39" y1="26.27" x2="41.61" y2="58.59" xlink:href="#linear-gradient-8"/>
    <linearGradient id="linear-gradient-11" x1="53.65" y1="25.94" x2="38.32" y2="47.36" xlink:href="#linear-gradient-7"/>
    <linearGradient id="linear-gradient-12" x1="44.43" y1="25.44" x2="37.64" y2="57.75" xlink:href="#linear-gradient-9"/>
    <linearGradient id="linear-gradient-13" x1="29.18" y1="57.19" x2="61.82" y2="57.19" xlink:href="#linear-gradient-3"/>
    <linearGradient id="linear-gradient-14" x1="29.18" y1="54.33" x2="61.82" y2="54.33" xlink:href="#linear-gradient-4"/>
    <linearGradient id="linear-gradient-15" x1="206.03" y1="309.99" x2="238.19" y2="321.79" gradientTransform="translate(-57.21 -329.28) rotate(18.62)" xlink:href="#linear-gradient-5"/>
    <linearGradient id="linear-gradient-16" x1="27.57" y1="45.98" x2="52.22" y2="61.21" xlink:href="#linear-gradient-7"/>
    <linearGradient id="linear-gradient-17" x1="68.17" y1="71.53" x2="71.32" y2="44.4" gradientUnits="userSpaceOnUse">
      <stop offset="0" stop-color="#f8c9db"/>
      <stop offset=".07" stop-color="#f6b8d2"/>
      <stop offset=".21" stop-color="#f28cbc"/>
      <stop offset=".41" stop-color="#ec4698"/>
      <stop offset=".45" stop-color="#eb3891"/>
      <stop offset=".53" stop-color="#de358b"/>
      <stop offset=".68" stop-color="#be2d7d"/>
      <stop offset=".87" stop-color="#8a2166"/>
      <stop offset="1" stop-color="#661956"/>
    </linearGradient>
    <linearGradient id="linear-gradient-18" x1="59.63" y1="70.54" x2="62.78" y2="43.41" gradientUnits="userSpaceOnUse">
      <stop offset="0" stop-color="#be237a"/>
      <stop offset=".25" stop-color="#fc4de8"/>
      <stop offset=".52" stop-color="#fa38ad"/>
      <stop offset=".65" stop-color="#fa2d8f"/>
      <stop offset="1" stop-color="#70175e"/>
    </linearGradient>
    <linearGradient id="linear-gradient-19" x1="60.97" y1="45.58" x2="63.51" y2="65.49" xlink:href="#linear-gradient-7"/>
    <linearGradient id="linear-gradient-20" x1="61.04" y1="45.52" x2="63.59" y2="65.48" xlink:href="#linear-gradient-7"/>
    <linearGradient id="linear-gradient-21" x1="60.88" y1="45.58" x2="63.43" y2="65.5" xlink:href="#linear-gradient-7"/>
    <linearGradient id="linear-gradient-22" x1="60.39" y1="45.66" x2="62.93" y2="65.57" xlink:href="#linear-gradient-7"/>
    <linearGradient id="linear-gradient-23" x1="61.13" y1="45.56" x2="63.67" y2="65.47" xlink:href="#linear-gradient-7"/>
    <linearGradient id="linear-gradient-24" x1="244.79" y1="321.31" x2="211.18" y2="327.94" gradientTransform="translate(-57.21 -329.28) rotate(18.62)" xlink:href="#linear-gradient-4"/>
    <linearGradient id="linear-gradient-25" x1="243.03" y1="312.35" x2="209.41" y2="318.97" gradientTransform="translate(-57.21 -329.28) rotate(18.62)" xlink:href="#linear-gradient-5"/>
    <linearGradient id="linear-gradient-26" x1="244.86" y1="319.21" x2="204.99" y2="327.07" gradientTransform="translate(-57.21 -329.28) rotate(18.62)" xlink:href="#linear-gradient-5"/>
    <linearGradient id="linear-gradient-27" x1="246.43" y1="315.95" x2="212.48" y2="302.85" gradientTransform="translate(-57.21 -329.28) rotate(18.62)" xlink:href="#linear-gradient-6"/>
    <linearGradient id="linear-gradient-28" x1="245.43" y1="319.4" x2="207.78" y2="304.88" gradientTransform="translate(-57.21 -329.28) rotate(18.62)" xlink:href="#linear-gradient-6"/>
    <linearGradient id="linear-gradient-29" x1="49.55" y1="36.44" x2="73.89" y2="51.54" xlink:href="#linear-gradient-7"/>
  </defs>
  <text class="cls-11" transform="translate(236.13 96.01)"><tspan x="0" y="0">Labs</tspan></text>
  <rect class="cls-10" x="154.86" y="88.77" width="73.37" height="2.08" rx="1.04" ry="1.04"/>
  <rect class="cls-9" x="294.59" y="88.77" width="26.85" height="2.08" rx="1.04" ry="1.04"/>
  <g>
    <path class="cls-12" d="M162.34,36.57h-5.14v-5.43h5.14v-2.82c0-8.82,4.34-12.8,14.47-12.8v5.5c-5.93,0-7.88,2.17-7.88,7.31v2.82h8.32v5.43h-8.32v34.21h-6.58v-34.21Z"/>
    <path class="cls-12" d="M183.83,20.22c0-2.53,1.95-4.48,4.48-4.48,2.39,0,4.34,1.95,4.34,4.48s-1.95,4.48-4.34,4.48c-2.53,0-4.48-1.95-4.48-4.48ZM184.91,31.14h6.58v39.64h-6.58V31.14Z"/>
    <path class="cls-12" d="M219.56,30.49c9.84,0,16.27,5.06,18.3,13.38h-7.09c-1.37-4.77-5.35-7.81-11.21-7.81-7.23,0-12.59,5.14-12.59,14.83s5.35,14.97,12.59,14.97c5.86,0,9.76-2.82,11.21-7.81h7.09c-2.03,7.88-8.46,13.38-18.3,13.38-11.28,0-19.31-7.96-19.31-20.54s8.03-20.4,19.31-20.4Z"/>
    <path class="cls-12" d="M245.52,20.22c0-2.53,1.95-4.48,4.48-4.48,2.39,0,4.34,1.95,4.34,4.48s-1.95,4.48-4.34,4.48c-2.53,0-4.48-1.95-4.48-4.48ZM246.61,31.14h6.58v39.64h-6.58V31.14Z"/>
    <path class="cls-12" d="M280.75,30.49c7.38,0,12.44,3.76,14.76,7.88v-7.23h6.65v39.64h-6.65v-7.38c-2.39,4.27-7.52,8.03-14.83,8.03-10.56,0-18.73-8.32-18.73-20.61s8.17-20.32,18.81-20.32ZM282.05,36.21c-7.23,0-13.38,5.28-13.38,14.61s6.15,14.83,13.38,14.83,13.45-5.42,13.45-14.75-6.22-14.68-13.45-14.68Z"/>
    <path class="cls-12" d="M313.3,17.26h6.58v53.52h-6.58V17.26Z"/>
  </g>
  <g>
    <path class="cls-8" d="M136.16,43.3v27.36c5.76-4.15,5.72-10.84,5.72-10.84v-10.79h-3.06l-2.65-5.73Z"/>
    <path class="cls-7" d="M147.53,59.3v-10.26h-5.65v10.79s.04,6.69-5.72,10.84c6.28,0,11.36-5.09,11.36-11.36Z"/>
  </g>
  <g>
    <path class="cls-4" d="M147.53,49.03v-22.12s-5.65,4.21-5.65,10.81v11.31c0,.3,0,.6,0,.9v3.1c.11.11.21.22.32.33.21.21.42.41.64.61,1.43,1.32,3.01,2.43,4.69,3.31v-8.25h0Z"/>
    <path class="cls-5" d="M136.17,38.27v4.34s.3,2.42,1.03,3.18c.72,1.77,1.62,3.24,1.62,3.24.86,1.43,1.88,2.77,3.06,3.99v-3.1c0-.3,0-.6,0-.9v-11.31c0-6.6,5.65-10.81,5.65-10.81-6.28,0-11.36,5.09-11.36,11.36Z"/>
    <path class="cls-3" d="M143.35,54.2c-4.93-4.39-7.19-10.3-7.19-11.67,0,3.11,3.76,8.77,6.68,11.46,1.43,1.32,3.01,2.42,4.69,3.31,0,0-2.95-2-4.17-3.09Z"/>
  </g>
  <g>
    <path class="cls-1" d="M147.59,19.09c.02-.18.03-.37.03-.56s0-.38-.03-.56v1.12Z"/>
    <path class="cls-2" d="M143.2,12.99c-.73,1.52-1.26,3.31-1.26,5.33v5.89c2.95,0,5.37-2.25,5.65-5.12v-1.12c-.24-2.45-2.04-4.44-4.39-4.98Z"/>
    <path class="cls-6" d="M141.94,18.32c0-2.02.53-3.81,1.26-5.33-.41-.09-.83-.14-1.27-.14-3.14,0-5.68,2.54-5.68,5.68s2.54,5.68,5.68,5.68c0,0,0,0,0,0v-5.89Z"/>
  </g>
  <path class="cls-12" d="M108.63,37.22h-5.14v-5.43h5.14v-9.98h6.58v9.98h10.34v5.43h-10.34v23.36c0,3.91,1.45,5.28,5.5,5.28h4.85v5.57h-5.93c-7.02,0-10.99-2.89-10.99-10.85v-23.36Z"/>
  <path class="cls-12" d="M86.78,71.43h-6.58V31.8h6.58v6.44c2.24-4.41,6.51-7.16,12.8-7.16v6.8h-1.74c-6.29,0-11.07,2.82-11.07,12.01v21.55Z"/>
  <g>
    <path class="cls-13" d="M43.41,56.81c-2.12-1.95-3.35-4.61-3.47-7.49,0-.15,0-.3-.01-.45-.13-5.75,1.94-11.23,5.85-15.47,2.69-2.92,6.04-5.02,9.73-6.16,0,0,0,0,0,0-5.91.25-11.37,2.78-15.38,7.13-3.69,4.01-5.73,9.11-5.85,14.5,0,.47,0,.94.01,1.42.04.98.15,1.96.31,2.91.21.21.42.41.64.61,4.35,4.01,10.01,6.08,15.92,5.83-2.88.12-5.63-.89-7.75-2.84Z"/>
    <path class="cls-14" d="M42.17,39.05c3.87-8.57,12.71-11.61,13.29-11.81-3.68,1.14-7.02,3.24-9.7,6.15-3.91,4.24-5.97,9.72-5.85,15.47,0,0,.22-2.54.27-2.97.26-2.06.86-4.36,1.98-6.85Z"/>
    <path class="cls-15" d="M49.79,26.74c-5.91.25-11.37,2.78-15.38,7.13-2.69,2.92-4.5,6.43-5.34,10.21.52,1.68,1.24,3.29,2.14,4.79.94,1.56,2.07,3.02,3.39,4.33-.17-.96-.27-1.93-.31-2.91-.02-.47-.02-.95-.01-1.42.11-5.39,2.16-10.5,5.85-14.5,4.01-4.35,9.47-6.89,15.38-7.13-1.85-.41-3.76-.58-5.71-.5Z"/>
  </g>
  <g>
    <g>
      <path class="cls-16" d="M70.21,48.51h-.67c0,13.4-14.5,16.11-14.5,16.11-.95.17-1.93.27-2.91.31-5.91.25-11.57-1.83-15.92-5.83-3.15-2.9-5.34-6.55-6.41-10.59-.41-1.55-.65-3.15-.72-4.79-.34,1.56-.52,3.16-.51,4.79,0,.31,0,.61.02.92.25,5.91,2.78,11.37,7.13,15.38,2.92,2.69,6.43,4.51,10.21,5.34,1.85.41,3.77.58,5.71.5,5.91-.25,11.37-2.78,15.38-7.13,2.69-2.92,5.02-6.43,5.85-10.21-.52-1.68-1.75-3.29-2.65-4.79Z"/>
      <g>
        <path class="cls-18" d="M67.14,48.51h-5.66c0,2.71-1,5.29-2.85,7.3-1.95,2.12-4.61,3.35-7.49,3.47-5.91.25-11.57-1.83-15.92-5.83-1.59-1.47-2.94-3.13-4.03-4.94-.9-1.51-1.62-3.11-2.14-4.79.07,1.64.31,3.24.72,4.79,1.07,4.04,3.26,7.69,6.41,10.59,4.35,4.01,10.01,6.08,15.92,5.83.98-.04,1.96-.15,2.91-.31,0,0,14.5-2.71,14.5-16.11h-2.39Z"/>
        <path class="cls-25" d="M61.48,48.06c0,.15,0,.3,0,.45h0c0-.15,0-.3-.01-.45Z"/>
      </g>
    </g>
    <path class="cls-26" d="M40.89,57.04c-4.63-2.09-7.64-5.63-9.47-8.53-1.55-2.47-2.25-4.49-2.34-4.76.52,1.67,1.23,3.26,2.13,4.76,1.08,1.81,2.43,3.47,4.03,4.94,4.35,4.01,10.01,6.08,15.92,5.83.85-.04,1.69-.17,2.49-.4-3.09.56-7.5.53-12.76-1.84Z"/>
  </g>
  <g>
    <path class="cls-27" d="M70.21,48.51c-.94-1.56-2.07-3.01-3.39-4.33.17.95.27,1.93.31,2.91.02.47.02.95.01,1.42v10.81c0,6.6,5.71,10.81,5.71,10.81v-16.84l-2.65-4.79Z"/>
    <path class="cls-28" d="M67.14,59.32v-10.81c0-.47,0-.94-.01-1.42-.04-.98-.15-1.95-.31-2.91-.21-.21-.42-.41-.64-.61-4.35-4.01-10.01-6.08-15.92-5.83,2.88-.12,5.63.89,7.75,2.84,2.12,1.95,3.35,4.61,3.47,7.49,0,.15,0,.3.01.45h0v10.26c0,6.28,5.09,11.36,11.36,11.36,0,0-5.71-4.21-5.71-10.81Z"/>
    <g>
      <path class="cls-17" d="M63.38,65.11c.07.09.13.18.18.24-.06-.08-.12-.16-.18-.24Z"/>
      <path class="cls-20" d="M63.57,65.35s0,0,0,0c0,0,0,0,0,0Z"/>
      <path class="cls-19" d="M63.37,65.08s.01.02.02.03c0,0-.01-.02-.02-.03Z"/>
      <path class="cls-21" d="M63.37,65.08c-1.87-2.61-1.87-6.31-1.87-6.31v-10.26c0-.15,0-.3-.01-.45-.04-.85-.17-1.69-.4-2.49.16.88.23,1.86.25,2.94v10.28c0,3.08,1.33,5.33,2.03,6.29Z"/>
      <path class="cls-22" d="M63.57,65.36c.13.16.21.25.21.25-.07-.08-.14-.16-.21-.25Z"/>
    </g>
  </g>
  <g>
    <g>
      <g>
        <path class="cls-30" d="M39.93,49.38c0-.15,0-.3,0-.45h0c0,.15,0,.3.01.45Z"/>
        <path class="cls-24" d="M42.77,41.63c1.95-2.12,4.61-3.35,7.49-3.47,5.91-.25,11.57,1.83,15.92,5.83,1.6,1.47,2.94,3.13,4.03,4.94h1.42c-1.07-4.04-3.26-7.7-6.41-10.59-4.35-4.01-10.01-6.08-15.92-5.83-.98.04-1.96.15-2.91.31-.21.21-.41.42-.61.64-3.91,4.24-5.97,9.72-5.85,15.47h0c0-2.71,1-5.29,2.85-7.3Z"/>
        <path class="cls-31" d="M72.86,53.72s-.83-3.24-1.24-4.79h-1.42c.9,1.51,2.65,4.79,2.65,4.79Z"/>
      </g>
      <g>
        <path class="cls-29" d="M72.84,48.01c-.25-5.91-2.78-11.37-7.13-15.38-2.92-2.69-6.43-4.51-10.21-5.34-3.42,1.06-6.54,2.93-9.12,5.52.95-.17,1.93-.27,2.91-.31,5.91-.25,11.57,1.83,15.92,5.83,3.15,2.9,5.34,6.55,6.41,10.59h1.24c0-.31,0-.61-.02-.92Z"/>
        <path class="cls-23" d="M72.86,48.93h-1.24c.41,1.55,1.24,4.79,1.24,4.79,0,0,0-3.16,0-4.79Z"/>
      </g>
    </g>
    <path class="cls-32" d="M70.21,48.93c-1.08-1.81-2.43-3.47-4.03-4.94-4.35-4.01-10.01-6.08-15.92-5.83-.85.04-1.69.17-2.49.4,3.09-.56,7.5-.53,12.76,1.84,4.63,2.09,7.64,5.63,9.47,8.53,1.55,2.47,2.77,4.49,2.86,4.76-.52-1.67-1.76-3.26-2.65-4.76Z"/>
  </g>
</svg>